<svg width="1148" height="342" viewBox="0 0 1148 342" fill="none" xmlns="http://www.w3.org/2000/svg">
<path d="M512 0.336914H0V341.663H512V0.336914Z" fill="#F0F0F0"/>
<path d="M512 0.336914V171H256L0 0.336914H512Z" fill="#0052B4"/>
<path d="M512 171V341.663H0L256 171H512Z" fill="#D80027"/>
<path d="M161.908 171L134.62 158.165L149.152 131.737L119.52 137.405L115.765 107.472L95.1248 129.487L74.4858 107.472L70.7308 137.405L41.0998 131.736L55.6308 158.164L28.3428 171L55.6308 183.835L41.0998 210.263L70.7328 204.595L74.4858 234.528L95.1248 212.513L115.765 234.528L119.52 204.595L149.151 210.264L134.619 183.837L161.908 171Z" fill="#FFDA44"/>
<path d="M21.789 32.6069L30.87 45.3029L45.749 40.5889L36.481 53.1489L45.562 65.8429L30.753 60.9109L21.485 73.4699L21.602 57.8619L6.79297 52.9279L21.673 48.2159L21.789 32.6069Z" fill="#FFDA44"/>
<path d="M21.789 268.53L30.87 281.226L45.749 276.512L36.481 289.072L45.562 301.767L30.753 296.834L21.485 309.392L21.602 293.785L6.79297 288.851L21.673 284.139L21.789 268.53Z" fill="#FFDA44"/>
<path d="M210.395 150.569L201.314 163.264L186.435 158.551L195.703 171.11L186.622 183.806L201.431 178.873L210.699 191.431L210.582 175.824L225.391 170.89L210.511 166.177L210.395 150.569Z" fill="#FFDA44"/>
<path d="M750.904 219.08H686.68V283.88H667.96V219.08H604.024V201.8H667.96V137H686.68V201.8H750.904V219.08ZM909.095 160.904C904.871 135.944 890.375 123.464 865.607 123.464C846.791 123.464 832.679 130.76 823.271 145.352C813.863 159.944 809.543 183.848 810.311 217.064C814.151 205.544 821.447 196.52 832.199 189.992C843.143 183.272 855.623 179.912 869.639 179.912C889.799 179.912 905.735 186.152 917.447 198.632C929.351 210.92 935.303 227.912 935.303 249.608C935.303 262.28 932.807 273.8 927.815 284.168C923.015 294.344 915.527 302.504 905.351 308.648C895.367 314.792 882.887 317.864 867.911 317.864C839.303 317.864 819.527 308.744 808.583 290.504C797.831 272.264 792.455 246.44 792.455 213.032C792.455 141.992 816.839 106.472 865.607 106.472C884.039 106.472 898.535 111.56 909.095 121.736C919.655 131.72 925.895 144.776 927.815 160.904H909.095ZM865.895 197.192C856.871 197.192 848.327 199.016 840.263 202.664C832.199 206.312 825.575 211.88 820.391 219.368C815.399 226.664 812.903 235.688 812.903 246.44C812.903 261.992 817.511 274.952 826.727 285.32C835.943 295.688 849.383 300.872 867.047 300.872C881.831 300.872 893.639 296.36 902.471 287.336C911.303 278.312 915.719 266.024 915.719 250.472C915.719 233.768 911.399 220.712 902.759 211.304C894.119 201.896 881.831 197.192 865.895 197.192ZM970.7 163.208C972.044 145.736 978.764 132.008 990.86 122.024C1003.15 111.848 1018.99 106.76 1038.38 106.76C1051.24 106.76 1062.28 109.064 1071.5 113.672C1080.72 118.28 1087.63 124.616 1092.24 132.68C1097.04 140.552 1099.44 149.48 1099.44 159.464C1099.44 171.56 1095.88 182.024 1088.78 190.856C1081.68 199.688 1071.6 205.16 1058.54 207.272V208.712C1072.17 211.4 1083.02 217.352 1091.08 226.568C1099.15 235.592 1103.18 247.496 1103.18 262.28C1103.18 278.792 1097.61 292.328 1086.48 302.888C1075.53 313.256 1059.6 318.44 1038.67 318.44C1018.7 318.44 1002.28 313.256 989.42 302.888C976.556 292.328 969.164 277.448 967.244 258.248H986.828C988.556 271.112 993.932 281.576 1002.96 289.64C1011.98 297.512 1023.88 301.448 1038.67 301.448C1053.26 301.448 1064.4 297.608 1072.08 289.928C1079.95 282.248 1083.88 272.456 1083.88 260.552C1083.88 231.368 1062.86 216.776 1020.81 216.776H1014.48V199.784H1021.1C1060.27 199.784 1079.85 187.016 1079.85 161.48C1079.85 150.344 1076.2 141.416 1068.91 134.696C1061.61 127.784 1051.24 124.328 1037.8 124.328C1024.75 124.328 1013.9 127.784 1005.26 134.696C996.812 141.416 991.82 150.92 990.284 163.208H970.7Z" fill="#383838"/>
</svg>
